Patient4_TMGait_0pt8_01_right_38_EMG.mot
version=1
nRows=27
nColumns=33
inDegrees=no
endheader
time	1LAddLong	2LGlutMax	3LGlutMed	4LIliopsoas	5LSemiMemb	6LBicFemLong	7LRecFem	8LVastMed	9LVastLat	10LGasMed	11LTibAnt	12lTibPost	13LPeroneusLong	14LSol	15LExtDigLong	16LFlexDigLong	17RAddLong	18RGlutMax	19RGlutMed	20RIliopsoas	21RSemiMemb	22RBicFemLong	23RRecFem	24RVastMed	25RVastLat	26RGasMed	27RTibAnt	28RTibPost	29RPeroneusLong	30RSol	31RExtDigLong	32RFlexDigLong
43.012	0.050812	0.064087	-0.03952	-0.005188	0.015411	-0.024109	0.00473	0.019073	0.11673	0.010681	-0.2504	-0.002899	0.01709	-0.09552	0.31723	0.011597	0.062103	0.10437	1.0498	-0.017548	-0.24124	0.046844	-0.90042	-0.19638	-0.43243	-0.041199	0.072632	-0.12283	-0.41672	-1.1711	-0.000763	-0.035095
43.013	-0.021057	0.019379	0.00412	-0.021973	0.007324	-0.03006	0.065765	0.028076	0.092621	0.044098	-0.14603	0.003357	-0.068665	-0.083923	0.48416	0.023041	0.023499	0.00351	0.19669	0.1358	-0.06958	-0.011139	-1.0121	-0.12573	-0.5217	-0.014343	0.065765	-0.057831	-0.075378	0.1741	0.001221	-0.027466
43.014	-0.021057	0.014038	0.032043	-0.010071	0.006714	-0.048676	0.13733	0.02533	0.089874	0.0354	-0.058289	-0.003357	-0.056	-0.080261	0.4715	0.021057	-0.018463	-0.082703	-0.39948	0.21942	0.028839	0.005798	-1.2738	0.032654	-0.56244	0.026093	0.024567	0.20432	0.21484	0.93826	-0.006104	-0.019531
43.015	-0.042267	0.041962	0.047607	0.011292	0.012512	-0.041199	0.16876	0.022736	0.12177	-0.010376	0.029755	-0.001526	-0.039978	0.015106	0.47714	0.034332	-0.007629	-0.13062	-1.1906	0.12573	-0.018005	0.04776	-1.3577	0.26337	-0.52612	0.041351	0.015717	-0.029755	0.26977	1.2418	0.001526	-0.020294
43.016	-0.039215	0.054779	0.053101	-0.006256	0.007019	-0.041809	0.18448	0.007782	0.13245	-0.025177	0.059967	-0.005646	-0.072479	0.081329	-0.11871	0.026855	0.012512	-0.32669	-1.7264	0.014648	-0.27435	0.075378	-1.4151	0.37628	-0.36255	0.002899	0.11414	0.35767	-0.079498	0.90256	-0.002747	-0.029449
43.017	-0.028992	0.12878	0.069733	-0.028534	0.00885	-0.044556	0.15945	0.016174	0.11932	-0.021667	0.11917	-0.008392	-0.10712	0.17349	0.16464	0.023193	0.032654	-0.51254	-0.952	-0.070648	-0.25482	0.10361	-1.2737	0.007019	-0.43289	0.010223	0.19196	0.177	-0.13473	0.6575	0.001831	-0.034637
43.018	-0.029602	0.15045	0.081635	-0.033264	0.009155	-0.030518	0.14755	0.016785	0.10727	-0.019226	0.025482	0	-0.07782	0.12817	0.1355	0.036621	0.04303	-0.66574	-1.1433	-0.018005	-0.027771	0.12482	-1.2396	-0.10849	-0.39978	-0.018616	0.30884	0.071259	0.04776	0.15198	-0.000916	-0.028229
43.019	-0.032654	0.24231	0.091095	-0.029297	0.011597	-0.039825	0.25253	0.01358	0.081329	-0.005341	0.049744	0.00061	-0.061951	0.17212	0.44952	0.018768	0.073395	-0.55725	-0.75714	0.018311	0.041656	0.045929	-0.7872	-0.26932	-0.37933	-0.010071	0.3833	0.029449	-0.029297	-0.18082	0.001373	-0.035553
43.02	-0.025482	0.21545	0.095215	0	0.007324	-0.045929	0.30228	-0.003052	0.065155	0.000305	-0.042877	0.001221	-0.081635	0.20874	0.49561	0.018921	0.14038	-0.45136	-0.63919	-0.025177	0.061035	-0.12344	-0.42587	-0.67154	-0.43442	-0.00473	0.27268	0.01358	-0.051727	-0.33936	0.003052	-0.028229
43.021	-0.020447	0.27618	0.13565	0.007324	0.008392	-0.067902	0.37308	0.002136	0.054474	0.011902	0.005341	0.006561	-0.085754	0.21316	0.55389	0.010223	0.13275	-0.3154	-0.35034	-0.23422	-0.26749	-0.2214	-0.215	-0.61325	-0.4303	0.011139	-0.013885	0.006256	0.13428	-0.34286	-0.003662	-0.030975
43.022	-0.012665	0.29526	0.16007	-0.020752	0.006866	-0.063171	0.38055	-0.001984	0.050964	0.007782	-0.012054	-0.001984	-0.10346	0.3122	-0.033417	-0.010834	0.035095	-0.19623	0.032806	-0.37994	-0.34622	-0.070496	-0.095673	-0.066223	-0.28488	0.020447	-0.29663	-0.02655	0.18616	-0.66696	-0.002747	-0.031433
43.023	-0.01236	0.31326	0.15762	-0.024109	0.00946	-0.056458	0.38452	-0.010681	0.015564	-0.028992	-0.058899	0.001526	-0.037689	0.39124	0.58014	-0.004578	-0.063324	-0.1088	-0.38895	-0.22919	-0.011902	0.056152	0.18509	0.11536	-0.26703	-0.010223	-0.36087	-0.027924	-0.025177	-0.74341	-0.005951	-0.021057
43.024	-0.011902	0.3305	0.10422	-0.010223	0.006561	-0.027771	0.31555	0.00351	0.00946	-0.072174	-0.087433	-0.006866	0.065613	0.36575	-0.68832	0.007477	-0.1294	-0.082703	-0.58487	0.019836	-0.22919	0.25803	0.32074	0.19836	-0.25391	-0.03891	-0.31128	-0.049896	-0.17258	-0.80383	-0.00412	-0.03067
43.025	-0.013885	0.38406	0.069427	-0.030823	0.003662	-0.035095	0.24368	-0.033875	0.002747	-0.10071	-0.049286	-0.000763	0.041046	0.26703	-0.522	-0.002899	-0.12146	-0.069733	-0.76416	0.23239	0.009918	0.20691	0.52261	0.12421	-0.24017	-0.083008	-0.10162	-0.091858	-0.29907	-0.74524	-0.006714	-0.025024
43.026	-0.007172	0.38727	0.11627	-0.02533	0.002441	-0.021515	0.30991	0.022278	-0.004425	-0.064545	0.072479	-0.003662	0.011292	0.019226	-0.67123	0.014191	-0.071411	-0.090637	-0.15579	0.24841	0.5246	0.077362	0.71503	-0.062866	-0.25436	-0.039673	0.058441	-0.15839	-0.22964	-0.47653	-0.002136	-0.031738
43.027	-0.004578	0.37552	0.10178	-0.011749	0.000916	-0.02182	0.44342	0.010071	0.00351	-0.035095	0.14389	-0.014038	0.043793	-0.073395	-0.72952	0.006714	0.001068	-0.098572	0.23392	0.23041	0.28275	0.06546	0.93063	-0.2214	-0.2449	-0.025635	0.005188	-0.010376	-0.11765	-0.12619	0.005951	-0.021667
43.028	-0.007019	0.30609	0.053253	0.022888	0.002136	-0.018158	0.44586	0.006409	-0.002747	-0.002594	-0.064392	-0.006409	0.04425	-0.18356	0.47577	0.005188	0.041962	-0.11581	-0.43015	0.14313	-0.1915	0.15991	1.033	-0.24139	-0.24658	-0.010376	0.11581	0.14511	-0.010529	0.29541	-0.001526	-0.015564
43.029	-0.005341	0.30121	0.033264	0.025635	-0.000153	-0.012207	0.41565	0.010986	-0.015717	0.016937	-0.046234	-0.017548	0.014343	-0.34592	-0.34378	0.00946	0.039063	-0.067902	-0.16556	0.056915	-0.49316	0.16892	1.1528	-0.18692	-0.24674	0.001526	0.21118	0.034943	0.19791	0.66254	-0.002136	-0.011597
43.03	-0.004883	0.31067	0.066681	0.013275	0.005035	-0.029602	0.41214	0.023041	-0.03952	0.065155	-0.041809	-0.02243	-0.020752	-0.40482	-0.16739	0.001984	0.000305	-0.010529	0.045929	0.032806	0.16281	0.092773	1.1641	-0.034332	-0.25116	0.031281	-0.073853	0.018768	0.29877	0.54367	-0.005341	-0.005493
43.031	-0.006561	0.28702	0.079041	0.012207	0.00412	-0.035553	0.42358	0.012207	-0.029144	0.045624	0.029602	-0.016479	-0.025787	-0.21515	-0.26581	0.006104	-0.054321	0.012512	-0.037689	0.009003	0.29007	0.027161	1.0461	0.11429	-0.233	0.052948	-0.36926	-0.018005	0.36209	0.51941	-0.001068	-0.009766
43.032	-0.000305	0.22995	0.069885	0.021057	0.008545	-0.027008	0.36713	0.009918	-0.039978	0.038147	0.05127	-0.024414	-0.008087	-0.15793	0.07019	0.01236	-0.15243	-0.11078	-0.070801	0.010223	0.070648	0.033875	0.8638	0.17303	-0.17334	0.027618	-0.48675	-0.035858	0.40176	0.44418	-0.000763	-0.007782
43.033	-0.002747	0.15106	0.064545	0.022583	0.007782	-0.063629	0.3389	0.010071	-0.066223	0.026398	-0.27557	-0.021057	0.002136	-0.039978	0.52704	0.008698	-0.16007	0.027008	-0.25192	0.013733	0.15396	-0.18295	0.86273	0.10162	-0.081329	-0.023041	-0.57846	-0.025177	0.29785	0.003052	0.000153	-0.008392
43.034	-0.005341	0.11841	0.121	-0.000458	0.006409	-0.042114	0.35523	0.008392	-0.084686	0.034332	-0.079193	-0.028534	-0.015106	0.041046	0.9819	0.019989	-0.048981	0.31952	-0.39307	0.021057	0.20401	-0.3595	0.99167	0.023499	-0.094604	-0.014191	-0.37247	-0.035553	0.20309	-0.22064	-0.009155	-0.001678
43.035	-0.007935	0.10056	0.18662	0.010376	0	-0.054626	0.37674	0.005646	-0.087585	0.022888	0.11444	-0.028076	-0.011444	0.059509	0.61508	0.019989	0.018158	0.5661	0.063934	-0.021362	0.35156	-0.3949	1.0426	-0.039215	-0.12116	0.020447	0.38315	-0.045929	-0.041199	-0.28442	-0.007172	0.001831
43.036	-0.020599	0.028381	0.10544	-0.004578	-0.001526	-0.054321	0.43808	0.012665	-0.098724	0.023956	0.12466	-0.017242	0.002289	0.078278	-0.23956	0.010376	0.034027	0.56274	0.033569	-0.050659	0.30151	-0.43182	1.0548	-0.020599	-0.10056	0.063171	0.50537	-0.051727	0.092773	-0.46585	0.000305	-0.000458
43.037	-0.023346	-0.035858	-0.031738	-0.012207	0.003357	-0.03006	0.46829	0.012207	-0.11902	0.008545	0.010376	-0.007935	0.056	0.007782	-0.15472	0.007782	-0.010529	0.28931	-0.39078	0.002136	-0.033569	-0.33966	1.0683	-0.032654	-0.10788	0.090942	-0.065918	-0.041046	-0.35477	-0.7901	-0.007782	-0.001984
43.038	-0.016785	-0.063019	-0.053711	-0.011292	0	-0.034332	0.55023	0.007629	-0.11688	0.00946	-0.21561	-0.005341	0.033264	0.068054	0.36713	0.007324	-0.053101	0.018921	-0.87036	-0.027771	-0.5127	-0.1088	1.0532	-0.002747	-0.10162	0.079041	-0.13519	-0.055389	-0.19073	-0.73166	-0.00351	-0.006714
